<svg id="Capa_1" enable-background="new 0 0 497.308 497.308" height="512" viewBox="0 0 497.308 497.308" width="512" xmlns="http://www.w3.org/2000/svg"><g><g id="Layer_x0020_1_33_"><path d="m129.807 177.484v142.33h-10.347v-142.33z"/><path d="m358.945 301.102c8.354-5.915 15.24-13.792 19.992-22.969 4.563-8.813 7.142-18.838 7.142-29.483s-2.579-20.671-7.142-29.484c-4.752-9.177-11.637-17.056-19.992-22.971l5.942-8.407c9.725 6.885 17.724 16.025 23.225 26.649 5.312 10.261 8.314 21.896 8.314 34.213s-3.002 23.952-8.314 34.212c-5.501 10.623-13.499 19.763-23.225 26.648z"/><path d="m393.128 350.864c14.471-12.681 26.229-28.395 34.284-46.154 7.747-17.078 12.061-36.058 12.061-56.059s-4.314-38.982-12.061-56.061c-8.055-17.76-19.814-33.475-34.284-46.156l6.79-7.76c15.589 13.661 28.248 30.574 36.911 49.672 8.344 18.397 12.991 38.815 12.991 60.305s-4.647 41.907-12.991 60.303c-8.663 19.099-21.322 36.01-36.911 49.671z"/><path d="m419.573 388.271c20.847-16.714 37.868-37.979 49.541-62.278 11.23-23.378 17.522-49.609 17.522-77.343 0-27.735-6.292-53.967-17.523-77.347-11.672-24.299-28.693-45.564-49.54-62.278l6.467-8.043c22.017 17.652 40.01 40.145 52.37 65.875 11.904 24.782 18.574 52.525 18.574 81.793 0 29.267-6.67 57.009-18.573 81.789-12.36 25.73-30.353 48.222-52.37 65.874z"/><path d="m10.673 314.609 114.261.051 3.415 1.273 179.863 158.48v-451.541l-180.163 158.492-3.415 1.293h-113.961zm112.29 10.357-117.464-.052-5.174-.003v-5.151-142.276-5.174h5.174 117.189l187.281-164.754 8.589-7.556v11.436 474.425 11.448l-8.589-7.568-187.007-164.776z"/></g></g></svg>